<svg width="328" height="73" viewBox="0 0 328 73" fill="none" xmlns="http://www.w3.org/2000/svg">
<path d="M36.5 73C56.6584 73 73 56.6584 73 36.5C73 16.3416 56.6584 0 36.5 0C16.3416 0 0 16.3416 0 36.5C0 56.6584 16.3416 73 36.5 73Z" fill="#4F47E6"/>
<path opacity="0.6" d="M36.5 69C54.4493 69 69 54.4493 69 36.5C69 18.5507 54.4493 4 36.5 4C18.5507 4 4 18.5507 4 36.5C4 54.4493 18.5507 69 36.5 69Z" stroke="#C4922A" stroke-width="0.8"/>
<path d="M16 51V22L31.5 37.6154L47 22V51" stroke="#FAF7F2" stroke-width="4.5" stroke-linecap="round" stroke-linejoin="round"/>
<path d="M47 36L61 22Z" fill="black"/>
<path d="M47 36L61 22" stroke="#FAF7F2" stroke-width="4.5" stroke-linecap="round"/>
<path d="M47 36L61 51Z" fill="black"/>
<path d="M47 36L61 51" stroke="#FAF7F2" stroke-width="4.5" stroke-linecap="round"/>
<path d="M119.52 19.724L119.792 23.43L109.694 40.94C109.694 40.94 109.581 41.144 109.354 41.552C109.127 41.9373 108.901 42.4133 108.674 42.98C108.47 43.5467 108.368 44.1133 108.368 44.68H108.028L106.702 41.722L119.52 19.724ZM96.468 41.518V44H92.694V43.66C92.7167 43.66 92.8187 43.66 93 43.66C93.1587 43.66 93.238 43.66 93.238 43.66C93.85 43.66 94.394 43.4787 94.87 43.116C95.346 42.7307 95.6293 42.198 95.72 41.518H96.468ZM97.964 42.062C97.964 42.0847 97.964 42.1073 97.964 42.13C97.964 42.1527 97.964 42.1867 97.964 42.232C97.964 42.5947 98.0887 42.9347 98.338 43.252C98.61 43.5467 98.9273 43.694 99.29 43.694H99.8V44H97.726V42.062H97.964ZM98.542 19.724H98.848L100.038 23.124L97.76 44H95.38L98.542 19.724ZM98.848 19.724L109.966 37.982L108.028 44.68L97.964 27.782L98.848 19.724ZM119.826 19.724L123.056 44H117.582L115.882 28.36L119.52 19.724H119.826ZM122.002 41.518H122.716C122.829 42.198 123.124 42.7307 123.6 43.116C124.076 43.4787 124.609 43.66 125.198 43.66C125.198 43.66 125.289 43.66 125.47 43.66C125.651 43.66 125.742 43.66 125.742 43.66V44H122.002V41.518ZM117.378 42.062H117.616V44H115.542V43.694H116.052C116.437 43.694 116.755 43.5467 117.004 43.252C117.253 42.9347 117.378 42.5947 117.378 42.232C117.378 42.1867 117.378 42.1527 117.378 42.13C117.378 42.1073 117.378 42.0847 117.378 42.062ZM131.785 20.234L138.755 32.882L133.927 33.358L125.971 20.234H131.785ZM138.925 33.052V44H133.825V33.052H138.925ZM144.399 20.234H147.051L138.585 33.732L136.851 33.392L144.399 20.234ZM143.005 22.648C143.209 22.3307 143.266 22.0133 143.175 21.696C143.084 21.356 142.914 21.084 142.665 20.88C142.416 20.6533 142.132 20.54 141.815 20.54C141.815 20.54 141.747 20.54 141.611 20.54C141.475 20.54 141.407 20.54 141.407 20.54V20.2H149.533V20.54H149.057C148.354 20.54 147.686 20.744 147.051 21.152C146.439 21.56 145.963 22.0247 145.623 22.546L143.005 22.648ZM133.111 22.648L127.365 22.546C127.048 22.0247 126.583 21.56 125.971 21.152C125.359 20.744 124.69 20.54 123.965 20.54H123.489V20.2H134.743V20.54C134.743 20.54 134.664 20.54 134.505 20.54C134.369 20.54 134.301 20.54 134.301 20.54C133.802 20.54 133.417 20.778 133.145 21.254C132.896 21.7073 132.884 22.172 133.111 22.648ZM133.927 41.518V44H131.207V43.66C131.207 43.66 131.275 43.66 131.411 43.66C131.547 43.66 131.626 43.66 131.649 43.66C132.238 43.66 132.737 43.456 133.145 43.048C133.576 42.6173 133.802 42.1073 133.825 41.518H133.927ZM138.823 41.518H138.925C138.925 42.1073 139.14 42.6173 139.571 43.048C140.002 43.456 140.512 43.66 141.101 43.66C141.101 43.66 141.169 43.66 141.305 43.66C141.441 43.66 141.509 43.66 141.509 43.66V44H138.823V41.518ZM157.834 19.724C158.287 19.724 158.843 19.7467 159.5 19.792C160.18 19.8373 160.871 19.9053 161.574 19.996C162.299 20.064 162.923 20.1433 163.444 20.234C163.988 20.302 164.362 20.3813 164.566 20.472L164.158 25.062H163.818C163.818 23.8833 163.376 22.9427 162.492 22.24C161.631 21.5147 160.475 21.152 159.024 21.152C157.709 21.152 156.644 21.4693 155.828 22.104C155.035 22.7387 154.615 23.5093 154.57 24.416C154.547 25.096 154.763 25.6853 155.216 26.184C155.669 26.6827 156.247 27.1473 156.95 27.578L163.444 31.794C164.487 32.3833 165.269 33.154 165.79 34.106C166.334 35.058 166.572 36.1687 166.504 37.438C166.391 39.6593 165.541 41.3933 163.954 42.64C162.367 43.864 160.214 44.476 157.494 44.476C156.497 44.476 155.522 44.3853 154.57 44.204C153.641 44.0453 152.813 43.8187 152.088 43.524C151.363 43.2067 150.785 42.8327 150.354 42.402C150.173 41.9033 150.093 41.3027 150.116 40.6C150.139 39.8973 150.241 39.1833 150.422 38.458C150.626 37.7327 150.875 37.132 151.17 36.656H151.476C151.385 37.812 151.589 38.8887 152.088 39.886C152.609 40.8607 153.357 41.6427 154.332 42.232C155.329 42.7987 156.508 43.0707 157.868 43.048C159.364 43.0253 160.52 42.6513 161.336 41.926C162.152 41.178 162.56 40.2827 162.56 39.24C162.56 38.5373 162.345 37.9027 161.914 37.336C161.506 36.7693 160.826 36.2253 159.874 35.704L153.924 31.76C152.723 31.08 151.85 30.2073 151.306 29.142C150.762 28.0767 150.547 26.9207 150.66 25.674C150.773 24.4953 151.125 23.464 151.714 22.58C152.303 21.6733 153.108 20.9707 154.128 20.472C155.171 19.9733 156.406 19.724 157.834 19.724ZM164.6 20.064L164.532 20.778H160.52V20.064H164.6ZM177.019 20.2V44H171.919V20.2H177.019ZM185.995 42.538L186.811 44H176.917V42.538H185.995ZM184.737 31.556V32.984H176.917V31.556H184.737ZM186.403 20.2V21.662H176.917V20.2H186.403ZM188.477 37.03L186.913 44H180.249L181.473 42.538C182.606 42.538 183.604 42.3227 184.465 41.892C185.326 41.4387 186.063 40.804 186.675 39.988C187.287 39.1493 187.774 38.1633 188.137 37.03H188.477ZM184.737 32.916V36.18H184.397V35.908C184.397 35.0693 184.125 34.378 183.581 33.834C183.037 33.29 182.346 33.0067 181.507 32.984V32.916H184.737ZM184.737 28.36V31.624H181.507V31.556C182.346 31.5333 183.037 31.25 183.581 30.706C184.125 30.1393 184.397 29.4367 184.397 28.598V28.36H184.737ZM186.403 21.56V25.538H186.063V25.13C186.063 24.0873 185.746 23.2487 185.111 22.614C184.499 21.9793 183.66 21.6507 182.595 21.628V21.56H186.403ZM186.403 19.588V20.574L182.255 20.2C182.754 20.2 183.275 20.166 183.819 20.098C184.386 20.03 184.907 19.9507 185.383 19.86C185.859 19.7693 186.199 19.6787 186.403 19.588ZM172.021 41.518V44H169.301V43.66C169.301 43.66 169.369 43.66 169.505 43.66C169.664 43.66 169.743 43.66 169.743 43.66C170.332 43.66 170.831 43.456 171.239 43.048C171.67 42.6173 171.896 42.1073 171.919 41.518H172.021ZM172.021 22.682H171.919C171.896 22.0927 171.67 21.594 171.239 21.186C170.831 20.7553 170.332 20.54 169.743 20.54C169.743 20.54 169.664 20.54 169.505 20.54C169.369 20.54 169.301 20.54 169.301 20.54V20.2H172.021V22.682ZM198.369 20.2V44H193.269V20.2H198.369ZM207.345 42.538L208.161 44H198.267V42.538H207.345ZM209.827 37.03L208.263 44H201.599L202.823 42.538C203.956 42.538 204.953 42.3227 205.815 41.892C206.676 41.4387 207.413 40.804 208.025 39.988C208.637 39.1493 209.124 38.1633 209.487 37.03H209.827ZM193.371 41.518V44H190.651V43.66C190.651 43.66 190.719 43.66 190.855 43.66C191.013 43.66 191.093 43.66 191.093 43.66C191.682 43.66 192.181 43.456 192.589 43.048C193.019 42.6173 193.246 42.1073 193.269 41.518H193.371ZM193.371 22.682H193.269C193.246 22.0927 193.019 21.594 192.589 21.186C192.181 20.7553 191.682 20.54 191.093 20.54C191.093 20.54 191.013 20.54 190.855 20.54C190.719 20.54 190.651 20.54 190.651 20.54V20.2H193.371V22.682ZM198.267 22.682V20.2H200.987V20.54C200.964 20.54 200.885 20.54 200.749 20.54C200.613 20.54 200.545 20.54 200.545 20.54C199.955 20.54 199.445 20.7553 199.015 21.186C198.607 21.594 198.391 22.0927 198.369 22.682H198.267ZM219.154 20.2V44H214.054V20.2H219.154ZM226.872 31.556V32.984H219.052V31.556H226.872ZM228.538 20.2V21.662H219.052V20.2H228.538ZM226.872 32.916V36.18H226.532V35.908C226.532 35.0693 226.26 34.378 225.716 33.834C225.172 33.29 224.48 33.0067 223.642 32.984V32.916H226.872ZM226.872 28.36V31.624H223.642V31.556C224.48 31.5333 225.172 31.25 225.716 30.706C226.26 30.1393 226.532 29.4367 226.532 28.598V28.36H226.872ZM228.538 21.56V25.334H228.198V24.994C228.198 23.974 227.892 23.1693 227.28 22.58C226.69 21.968 225.886 21.662 224.866 21.662V21.56H228.538ZM228.538 19.588V20.574L224.39 20.2C224.888 20.2 225.41 20.166 225.954 20.098C226.52 20.03 227.042 19.9507 227.518 19.86C227.994 19.7693 228.334 19.6787 228.538 19.588ZM214.156 41.518V44H211.436V43.66C211.436 43.66 211.504 43.66 211.64 43.66C211.798 43.66 211.878 43.66 211.878 43.66C212.467 43.66 212.966 43.456 213.374 43.048C213.804 42.6173 214.031 42.1073 214.054 41.518H214.156ZM214.156 22.682H214.054C214.031 22.0927 213.804 21.594 213.374 21.186C212.966 20.7553 212.467 20.54 211.878 20.54C211.878 20.54 211.798 20.54 211.64 20.54C211.504 20.54 211.436 20.54 211.436 20.54V20.2H214.156V22.682ZM219.052 41.518H219.154C219.176 42.1073 219.392 42.6173 219.8 43.048C220.23 43.456 220.74 43.66 221.33 43.66C221.33 43.66 221.398 43.66 221.534 43.66C221.67 43.66 221.749 43.66 221.772 43.66V44H219.052V41.518ZM244.304 29.346L253.212 41.552C253.733 42.232 254.266 42.7533 254.81 43.116C255.354 43.456 255.977 43.6373 256.68 43.66V44H253.892C253.642 44 253.223 43.9887 252.634 43.966C252.067 43.9433 251.421 43.8527 250.696 43.694C249.97 43.5353 249.234 43.2633 248.486 42.878C247.76 42.47 247.126 41.9033 246.582 41.178C246.468 41.0193 246.242 40.7133 245.902 40.26C245.562 39.8067 245.165 39.2627 244.712 38.628C244.258 37.9933 243.782 37.3473 243.284 36.69C242.808 36.01 242.354 35.3753 241.924 34.786C241.493 34.1967 241.142 33.7207 240.87 33.358C240.62 32.9727 240.496 32.78 240.496 32.78L244.304 29.346ZM252.838 20.438L242.604 32.576L240.496 32.78L249.846 20.438H252.838ZM255.218 20.2V20.506H255.082C254.334 20.506 253.631 20.6647 252.974 20.982C252.339 21.2767 251.795 21.6733 251.342 22.172L248.588 22.104C248.86 21.7187 248.905 21.356 248.724 21.016C248.542 20.676 248.225 20.506 247.772 20.506H247.432V20.2H255.082H255.218ZM239.408 20.2V44H234.308V20.2H239.408ZM234.41 41.518V44H231.69V43.66C231.712 43.66 231.78 43.66 231.894 43.66C232.03 43.66 232.109 43.66 232.132 43.66C232.721 43.66 233.22 43.456 233.628 43.048C234.058 42.6173 234.285 42.1073 234.308 41.518H234.41ZM234.41 22.682H234.308C234.285 22.0927 234.058 21.594 233.628 21.186C233.22 20.7553 232.721 20.54 232.132 20.54C232.109 20.54 232.03 20.54 231.894 20.54C231.78 20.54 231.712 20.54 231.69 20.54V20.2H234.41V22.682ZM239.306 41.518H239.408C239.43 42.1073 239.646 42.6173 240.054 43.048C240.484 43.456 240.994 43.66 241.584 43.66C241.606 43.66 241.674 43.66 241.788 43.66C241.924 43.66 242.003 43.66 242.026 43.66V44H239.306V41.518ZM239.306 22.682V20.2H242.026V20.54C242.003 20.54 241.924 20.54 241.788 20.54C241.674 20.54 241.606 20.54 241.584 20.54C240.994 20.54 240.484 20.7553 240.054 21.186C239.646 21.594 239.43 22.0927 239.408 22.682H239.306ZM268.03 19.52L279.148 43.796H273.028L265.956 26.082L268.03 19.52ZM260.72 41.518C260.539 41.9713 260.505 42.3567 260.618 42.674C260.731 42.9913 260.924 43.2407 261.196 43.422C261.468 43.5807 261.74 43.66 262.012 43.66H262.318V44H255.042V43.66C255.042 43.66 255.099 43.66 255.212 43.66C255.303 43.66 255.348 43.66 255.348 43.66C255.869 43.66 256.402 43.5013 256.946 43.184C257.513 42.844 257.977 42.2887 258.34 41.518H260.72ZM268.03 19.52L268.166 23.668L259.734 43.898H257.252L266.058 23.974C266.126 23.838 266.239 23.5887 266.398 23.226C266.579 22.8407 266.761 22.41 266.942 21.934C267.146 21.458 267.327 21.0047 267.486 20.574C267.645 20.1207 267.724 19.7693 267.724 19.52H268.03ZM271.6 35.908V37.336H261.604V35.908H271.6ZM272.11 41.518H278.06C278.445 42.2887 278.91 42.844 279.454 43.184C279.998 43.5013 280.531 43.66 281.052 43.66C281.052 43.66 281.097 43.66 281.188 43.66C281.279 43.66 281.324 43.66 281.324 43.66V44H270.512V43.66H270.818C271.271 43.66 271.668 43.4787 272.008 43.116C272.348 42.7307 272.382 42.198 272.11 41.518ZM289.171 20.2H293.557C294.577 20.2 295.575 20.3133 296.549 20.54C297.524 20.7667 298.385 21.1293 299.133 21.628C299.904 22.1267 300.516 22.784 300.969 23.6C301.423 24.416 301.649 25.4247 301.649 26.626C301.649 27.578 301.445 28.53 301.037 29.482C300.652 30.4113 300.051 31.216 299.235 31.896C298.419 32.5533 297.365 32.95 296.073 33.086C296.799 33.3127 297.456 33.7207 298.045 34.31C298.657 34.8993 299.156 35.4887 299.541 36.078C299.564 36.1233 299.689 36.3273 299.915 36.69C300.165 37.0527 300.459 37.506 300.799 38.05C301.162 38.5713 301.536 39.104 301.921 39.648C302.307 40.192 302.658 40.668 302.975 41.076C303.474 41.688 303.927 42.1867 304.335 42.572C304.743 42.9347 305.174 43.2067 305.627 43.388C306.081 43.5467 306.602 43.6373 307.191 43.66V44H303.859C302.635 44 301.525 43.898 300.527 43.694C299.53 43.4673 298.646 43.0933 297.875 42.572C297.105 42.0507 296.436 41.348 295.869 40.464C295.688 40.192 295.484 39.852 295.257 39.444C295.053 39.0133 294.838 38.56 294.611 38.084C294.385 37.608 294.158 37.1547 293.931 36.724C293.727 36.2707 293.546 35.8627 293.387 35.5C293.229 35.1373 293.115 34.854 293.047 34.65C292.753 33.9247 292.401 33.3807 291.993 33.018C291.608 32.6553 291.189 32.44 290.735 32.372V32.032C290.803 32.032 290.939 32.032 291.143 32.032C291.347 32.032 291.563 32.032 291.789 32.032C292.401 32.032 292.991 31.9073 293.557 31.658C294.147 31.4087 294.668 31.0007 295.121 30.434C295.575 29.8673 295.892 29.0853 296.073 28.088C296.119 27.884 296.153 27.646 296.175 27.374C296.221 27.102 296.232 26.796 296.209 26.456C296.141 24.824 295.733 23.634 294.985 22.886C294.237 22.1153 293.308 21.7187 292.197 21.696C291.88 21.6733 291.529 21.6733 291.143 21.696C290.781 21.696 290.441 21.696 290.123 21.696C289.829 21.696 289.625 21.696 289.511 21.696C289.511 21.6733 289.477 21.5487 289.409 21.322C289.364 21.0727 289.307 20.8233 289.239 20.574C289.194 20.3247 289.171 20.2 289.171 20.2ZM289.613 20.2V44H284.513V20.2H289.613ZM284.615 41.518V44H281.895V43.66C281.918 43.66 281.986 43.66 282.099 43.66C282.235 43.66 282.315 43.66 282.337 43.66C282.927 43.66 283.425 43.456 283.833 43.048C284.264 42.6173 284.491 42.1073 284.513 41.518H284.615ZM284.615 22.682H284.513C284.491 22.0927 284.264 21.594 283.833 21.186C283.425 20.7553 282.927 20.54 282.337 20.54C282.315 20.54 282.235 20.54 282.099 20.54C281.986 20.54 281.918 20.54 281.895 20.54V20.2H284.615V22.682ZM289.511 41.518H289.613C289.613 42.1073 289.829 42.6173 290.259 43.048C290.69 43.456 291.2 43.66 291.789 43.66C291.835 43.66 291.914 43.66 292.027 43.66C292.141 43.66 292.197 43.66 292.197 43.66V44H289.511V41.518ZM318.443 20.302V44H313.343V20.302H318.443ZM326.773 20.166V21.594H305.013V20.166H326.773ZM326.773 21.492V25.504L326.433 25.47V25.096C326.433 24.0307 326.116 23.192 325.481 22.58C324.869 21.9453 324.03 21.6167 322.965 21.594V21.492H326.773ZM326.773 19.554V20.54L322.625 20.166C323.124 20.166 323.645 20.132 324.189 20.064C324.756 19.996 325.277 19.9167 325.753 19.826C326.229 19.7353 326.569 19.6447 326.773 19.554ZM313.445 41.518V44H310.725V43.66C310.725 43.66 310.793 43.66 310.929 43.66C311.088 43.66 311.167 43.66 311.167 43.66C311.756 43.66 312.255 43.456 312.663 43.048C313.094 42.6173 313.32 42.1073 313.343 41.518H313.445ZM318.341 41.518H318.443C318.466 42.1073 318.681 42.6173 319.089 43.048C319.52 43.456 320.03 43.66 320.619 43.66C320.619 43.66 320.687 43.66 320.823 43.66C320.982 43.66 321.061 43.66 321.061 43.66V44H318.341V41.518ZM308.787 21.492V21.594C307.744 21.6167 306.906 21.9453 306.271 22.58C305.659 23.192 305.353 24.0307 305.353 25.096V25.47L305.013 25.504V21.492H308.787ZM305.013 19.554C305.24 19.6447 305.58 19.7353 306.033 19.826C306.509 19.9167 307.03 19.996 307.597 20.064C308.164 20.132 308.685 20.166 309.161 20.166L305.013 20.54V19.554Z" fill="black"/>
<path d="M93.5 51H317.5" stroke="#C4922A" stroke-width="1.2"/>
</svg>
